<?xml version="1.0" encoding="UTF-8"?>
<svg width="41px" height="40px" viewBox="0 0 41 40" version="1.1" xmlns="http://www.w3.org/2000/svg" xmlns:xlink="http://www.w3.org/1999/xlink">
    <path d="M14.0136054,25.4618474 L11.4739229,31.2851406 C10.6273578,33.0968408 9.53893333,34.2614878 8.20861678,34.7791165 C7.24111383,35.2967451 5.24566893,35.5555556 2.22222222,35.5555556 C2.58503583,35.0379269 3.1897161,33.8732799 4.03628118,32.0615797 C4.64097052,30.8969152 5.12471474,29.9910786 5.48752834,29.3440428 L16.1904762,3.33333333 L23.6281179,3.52744311 L34.6938776,29.5381526 C35.177629,31.0910386 35.9637134,32.7086038 37.0521542,34.3908969 C37.2940299,35.0379327 37.535902,35.4261484 37.7777778,35.5555556 C33.907766,35.5555556 31.5495129,35.3614477 30.7029478,34.9732262 C29.614507,34.4555976 28.5865506,32.9027349 27.6190476,30.3145917 L25.8049887,25.4618474 L14.0136054,25.4618474 Z M25.0793651,23.5207497 L20,9.9330656 L14.5578231,23.5207497 L25.0793651,23.5207497 Z" id="A备份"  fill-rule="nonzero"></path>
</svg>