<?xml version="1.0" encoding="UTF-8"?>
<svg width="40px" height="40px" viewBox="0 0 40 40" version="1.1" xmlns="http://www.w3.org/2000/svg" xmlns:xlink="http://www.w3.org/1999/xlink">
    <path d="M2.6291474,37.1542473 C2.9932144,37.5181419 3.53021322,37.645505 4.0308053,37.4817524 L17.4131966,33.8993297 C17.4131966,33.8993297 17.5042133,33.8629403 17.5315183,33.8538429 C17.7681619,33.7537718 17.9501954,33.5718245 17.9501954,33.5718245 L34.7520665,16.6052398 C34.7611681,16.5870451 33.1513228,18.3974222 35.1161335,16.186761 C35.8169624,15.3589008 37.3005354,13.3301883 37.3370253,10.5281998 C37.3460438,8.71782408 36.6088081,6.66181954 34.7520665,4.81505444 C32.9044265,2.95009459 30.847448,2.213208 29.0362148,2.22222222 C25.4137483,2.26779219 23.0746179,4.73317815 22.9562961,4.81505444 L6.14532327,21.7816392 C6.14532327,21.7816392 5.94508643,21.999976 5.86317135,22.200118 C5.84496798,22.2456049 5.81766296,22.3183838 5.81766296,22.3183838 L2.29238543,35.7623504 C2.12855527,36.2536081 2.25597869,36.7903527 2.6291474,37.1542473 Z M6.13205996,32.2561442 C6.13205996,32.2561442 6.7113846,32.12009 7.10863582,32.5191822 C7.4810588,32.8910636 7.4810588,33.4806316 7.4810588,33.4806316 L5.54445923,34.1881132 L6.13205996,32.2561442 Z M8.81716912,26.1591263 L12.1091434,27.6061887 L13.5568913,30.9026087 L9.65217723,32.2055653 C9.51401044,31.8092744 9.27972757,31.3169129 8.88324892,30.9146175 C8.45072674,30.4762958 7.92809578,30.260137 7.48956636,30.1460533 L8.81716912,26.1591263 Z M31.825925,8.12414251 C33.2973685,9.58179838 33.3085455,11.9563025 31.8508896,13.4277459 C31.8252594,13.4536186 31.7992536,13.4791166 31.7728806,13.5042317 L16.9707393,27.6003858 L15.361832,24.3334134 L11.7499499,22.3126037 L26.3187959,8.10275617 C27.8529745,6.60638208 30.3034146,6.6158981 31.825925,8.12414251 Z" id="Shape"  fill-rule="nonzero"></path>
</svg>