<?xml version="1.0" encoding="UTF-8"?>
<svg width="48px" height="48px" viewBox="0 0 48 48" version="1.1" xmlns="http://www.w3.org/2000/svg" xmlns:xlink="http://www.w3.org/1999/xlink">
    <path d="M32.5688783,3 C33.3575889,3 33.9969652,3.64172519 33.9969652,4.43333333 L33.9969652,4.43333333 L33.9969652,8.01666667 L42.572627,8.01666667 C43.0828333,8.01692271 43.5541473,8.29035109 43.8090295,8.73395398 C44.0639117,9.17755688 44.0636395,9.72394046 43.8083154,10.1672873 C43.5529914,10.6106342 43.0814052,10.8835894 42.5711989,10.8833333 L42.5711989,10.8833333 L41.0659953,10.8833333 L37.5886037,42.1773 C37.3457385,44.3538608 35.5121996,46 33.3300486,46 L33.3300486,46 L14.6692372,46 C12.4873832,46 10.6542959,44.3536371 10.4121101,42.1773 L10.4121101,42.1773 L6.93471856,10.8833333 L5.42808689,10.8833333 C4.63937628,10.8833333 4,10.2416081 4,9.45 C4,8.65839186 4.63937628,8.01666667 5.42808689,8.01666667 L5.42808689,8.01666667 L14.0037487,8.01666667 L14.0037487,4.43333333 C14.0037487,3.64172519 14.643125,3 15.4318356,3 L15.4318356,3 Z M38.1926845,10.8833333 L9.80802939,10.8833333 L13.2497188,41.8591 C13.3304676,42.5847271 13.9417707,43.1333334 14.6692372,43.1333334 L14.6692372,43.1333334 L33.3314767,43.1333334 C34.0589432,43.1333334 34.6702463,42.5847271 34.7509951,41.8591 L34.7509951,41.8591 L38.1926845,10.8833333 Z M28.2846176,14.4265333 C29.0733282,14.4265333 29.7127045,15.0682585 29.7127045,15.8598667 L29.7127045,15.8598667 L29.7127045,36.9040667 C29.7127045,37.6956748 29.0733282,38.3374 28.2846176,38.3374 C27.495907,38.3374 26.8565307,37.6956748 26.8565307,36.9040667 L26.8565307,36.9040667 L26.8565307,15.8598667 C26.8565307,15.0682585 27.495907,14.4265333 28.2846176,14.4265333 Z M20.4301397,14.4265333 C21.2188503,14.4265333 21.8582266,15.0682585 21.8582266,15.8598667 L21.8582266,15.8598667 L21.8582266,36.9040667 C21.8582266,37.6956748 21.2188503,38.3374 20.4301397,38.3374 C19.6414291,38.3374 19.0020528,37.6956748 19.0020528,36.9040667 L19.0020528,36.9040667 L19.0020528,15.8598667 C19.0020528,15.0682585 19.6414291,14.4265333 20.4301397,14.4265333 Z M31.1407914,5.86666667 L16.8599225,5.86666667 L16.8599225,8.01666667 L31.1407914,8.01666667 L31.1407914,5.86666667 Z"   fill-rule="nonzero"></path>
</svg>