<?xml version="1.0" encoding="UTF-8"?>
<svg width="41px" height="40px" viewBox="0 0 41 40" version="1.1" xmlns="http://www.w3.org/2000/svg" xmlns:xlink="http://www.w3.org/1999/xlink">
    <!-- Generator: Sketch 63 (92445) - https://sketch.com -->
    <path d="M19.5555556,8.44444444 L30.6666667,8.44444444 L30.6666667,19.5555556 L19.5555556,19.5555556 L19.5555556,8.44444444 Z M8.44444444,19.5555556 L19.5555556,19.5555556 L19.5555556,30.6666667 L8.44444444,30.6666667 L8.44444444,19.5555556 Z" id="形状"  fill-rule="nonzero"></path>
    <path d="M31.1111111,37.7777778 L8.88888889,37.7777778 C5.20699056,37.7777778 2.22222222,34.7930094 2.22222222,31.1111111 L2.22222222,8.88888889 C2.22222222,5.20699056 5.20699056,2.22222222 8.88888889,2.22222222 L31.1111111,2.22222222 C34.7930094,2.22222222 37.7777778,5.20699056 37.7777778,8.88888889 L37.7777778,31.1111111 C37.7777778,34.7930094 34.7930094,37.7777778 31.1111111,37.7777778 Z M7.96296296,5.55555556 C6.63338857,5.55555556 5.55555556,6.63338857 5.55555556,7.96296296 L5.55555556,32.037037 C5.55555556,33.3666114 6.63338857,34.4444444 7.96296296,34.4444444 L32.037037,34.4444444 C33.3666114,34.4444444 34.4444444,33.3666114 34.4444444,32.037037 L34.4444444,7.96296296 C34.4444444,6.63338857 33.3666114,5.55555556 32.037037,5.55555556 L7.96296296,5.55555556 Z" id="形状"  fill-rule="nonzero"></path>
</svg>