<?xml version="1.0" encoding="UTF-8"?>
<svg width="40px" height="40px" viewBox="0 0 40 40" version="1.1" xmlns="http://www.w3.org/2000/svg" xmlns:xlink="http://www.w3.org/1999/xlink">
    <path d="M17.5779596,8.54958017 L17.5779596,9.78258063 C17.5779596,10.8408584 18.4358632,11.6987621 19.494141,11.6987621 C20.5524188,11.6987621 21.4103224,10.8408584 21.4103224,9.78258063 L21.4103224,4.72371845 C21.4103224,3.496419 20.4153996,2.50149623 19.1881002,2.50149623 C18.5763176,2.50149623 17.9915961,2.75371146 17.5717539,3.19869512 L3.2331148,18.3959752 C2.0630494,19.6361077 2.0174257,21.5592807 3.12736825,22.8535021 L15.8639539,37.7046866 C16.6629229,38.6363048 18.065841,38.7438383 18.9974592,37.9448694 C19.4897309,37.5226902 19.7730202,36.9065365 19.7730202,36.2580253 L19.7730202,25.2321054 L19.7730202,25.2321054 C23.2058426,25.6262204 26.0618735,26.3972435 28.3411128,27.5451747 C28.3411128,27.5451747 28.3411128,27.5451747 28.3411128,27.5451747 C30.4830369,28.6239474 33.0939274,27.7620931 34.1727002,25.620169 C34.9201963,24.1360011 34.7551232,22.3553848 33.7475296,21.0339235 C33.0553456,20.1261947 32.2868819,19.29897 31.4421037,18.5522758 C28.2479816,15.7290114 24.3482408,13.9602893 19.742881,13.2461093 C18.8736739,13.111306 18.0597695,13.7066674 17.9249762,14.5758761 C17.9124536,14.6566279 17.9061644,14.7382238 17.9061644,14.8199408 C17.9061644,15.7914187 18.6317736,16.609832 19.5962554,16.726211 C22.0019735,17.0164528 24.3663523,17.8958982 26.6893918,19.3645475 C29.5542619,21.1757476 31.6020001,23.472523 32.8326067,26.2548737 C29.0492033,24.5029085 25.9618566,23.3648044 23.5705665,22.8405615 C22.0855021,22.5149906 20.6358973,22.2470078 19.2217523,22.0366132 C18.0078183,21.856015 16.8773204,22.6936906 16.696713,23.9076233 C16.680606,24.0158849 16.6725195,24.1251885 16.6725195,24.2346417 L16.6725195,33.6727049 L16.6725195,33.6727049 L7.30858708,22.4534377 C6.59165669,21.5944573 6.62515013,20.3364185 7.3867707,19.5168025 L17.5779596,8.54958017 L17.5779596,8.54958017 Z" id="Path-9" ></path>
</svg>