<?xml version="1.0" encoding="UTF-8"?>
<svg width="48px" height="48px" viewBox="0 0 48 48" version="1.1" xmlns="http://www.w3.org/2000/svg" xmlns:xlink="http://www.w3.org/1999/xlink">
    <path d="M5.18286303,19.7599081 L30.5474794,19.7599081 C31.1080723,19.7599081 31.6457047,19.9826027 32.0421038,20.3790017 C32.4385028,20.7754008 32.6611974,21.3130332 32.6611974,21.8736261 L32.6611974,40.8970884 C32.6611974,42.0644626 31.7148536,43.0108064 30.5474794,43.0108064 L5.18286303,43.0108064 C4.01548881,43.0108064 3.06914498,42.0644626 3.06914498,40.8970884 L3.06914498,21.8736261 C3.06914498,21.3130332 3.29183964,20.7754008 3.68823867,20.3790017 C4.08463769,19.9826027 4.62227015,19.7599081 5.18286303,19.7599081 L5.18286303,19.7599081 Z M7.29658108,23.9873441 L7.29658108,38.7833703 L28.4337613,38.7833703 L28.4337613,23.9873441 L7.29658108,23.9873441 Z" id="形状" fill="#FFFFFF" fill-rule="nonzero"></path>
    <path d="M26.0389188,13.171449 L26.0389188,16.3779592 C26.0389188,16.5380827 25.9484507,16.6844632 25.8052319,16.7560726 C25.6620132,16.827682 25.4906279,16.8122282 25.3625291,16.7161541 L18.0342686,11.2204872 C17.9278193,11.1406503 17.8651712,11.015354 17.8651712,10.8822923 C17.8651712,10.7492307 17.9278193,10.6239344 18.0342686,10.5440974 L25.3625291,5.04843056 C25.4906279,4.95235648 25.6620132,4.93690268 25.8052319,5.00851207 C25.9484507,5.08012147 26.0389188,5.226502 26.0389188,5.38662547 L26.0389188,8.94401291 C36.5395083,8.95218005 45.0475851,17.4668826 45.0475851,27.9674752 C45.0475851,28.722711 44.6448536,29.4206271 43.9908195,29.7982784 C43.3367854,30.1759296 42.5309487,30.1759296 41.8769146,29.7982784 C41.2228805,29.4206271 40.8200334,28.722711 40.820149,27.9674752 C40.8201531,19.8016303 34.2047597,13.1796148 26.0389188,13.171449 Z" id="路径" fill="#FFFFFF" fill-rule="nonzero"></path>
</svg>